<svg xmlns="http://www.w3.org/2000/svg" width="67" height="114" viewBox="0 0 166 276">
    <g fill="none" fill-rule="evenodd">
        <g>
            <path fill="#1A1919" d="M41.348 216.47c-.1 0-.18-.08-.18-.18V.18c0-.099.08-.18.18-.18.1 0 .18.081.18.18v216.11c0 .1-.08.18-.18.18"/>
            <path fill="#D8232A" d="M16.322 247.353c0 2.386 1.932 4.319 4.317 4.319 2.386 0 4.318-1.933 4.318-4.319V.18h-8.635v247.173z"/>
            <path fill="#DF542F" d="M39.91.18v216.11c0 .796.643 1.44 1.438 1.44.796 0 1.44-.644 1.44-1.44V.18h-2.879z"/>
            <path fill="#FFF101" d="M54.863.18v267.882c0 3.976 3.222 7.197 7.196 7.197 3.974 0 7.196-3.221 7.196-7.197V.18H54.863z"/>
            <path fill="#009949" d="M72.693.18v205.755c0 5.564 4.51 10.075 10.074 10.075s10.074-4.511 10.074-10.075V.18H72.693z"/>
            <path fill="#35A0CD" d="M100.598.18v257.53c0 1.589 1.29 2.877 2.878 2.877 1.59 0 2.878-1.288 2.878-2.877V.18h-5.756z"/>
            <path fill="#283278" d="M116.99.18v226.463c0 3.976 3.222 7.196 7.197 7.196 3.974 0 7.196-3.22 7.196-7.196V.18H116.99z"/>
            <path fill="#572A79" d="M139.139.18V237c0 3.179 2.577 5.757 5.756 5.757 3.18 0 5.757-2.578 5.757-5.757V.18h-11.513z"/>
            <path fill="#D8232A" d="M0.098 194.282L165.599 194.282 165.599 28.78 0.098 28.78z"/>
            <path fill="#FFFFFE" d="M33.214 87.485c0 1.377.051 2.716.154 4.017.102 1.301.34 2.468.713 3.5.371 1.033.91 1.871 1.617 2.517.706.645 1.662 1 2.87 1.064 2.774 0 4.161-1.484 4.161-4.452 0-4.043-2.735-8.087-8.205-12.13l-4.353-3.098c-1.233-.86-2.504-1.779-3.814-2.758-1.31-.978-2.504-2.108-3.582-3.388-1.079-1.279-1.972-2.758-2.677-4.436-.707-1.678-1.059-3.646-1.059-5.904 0-2.344.474-4.462 1.425-6.356.949-1.892 2.278-3.5 3.987-4.823 1.707-1.323 3.761-2.339 6.163-3.049 2.4-.709 5.065-1.064 7.993-1.064 2.439 0 4.731.398 6.876 1.193 2.143.797 4.018 1.872 5.624 3.227 1.604 1.355 2.87 2.941 3.794 4.758.925 1.818 1.387 3.75 1.387 5.792l-.039 1.387-14.484 1.677c0-.129.006-.29.02-.484l.038-.629c.013-.225.025-.445.039-.66.012-.216.019-.409.019-.582 0-.709-.065-1.457-.192-2.242-.13-.785-.354-1.505-.675-2.162-.321-.655-.77-1.198-1.348-1.629-.577-.43-1.316-.645-2.215-.645-.77 0-1.444.14-2.022.42-.578.28-1.06.656-1.444 1.13-.386.472-.675 1.015-.867 1.628-.193.613-.289 1.253-.289 1.92 0 .967.128 1.855.385 2.661.256.807.641 1.576 1.155 2.307.513.732 1.137 1.43 1.869 2.097s1.572 1.334 2.523 2l5.123 3.678c1.849 1.355 3.537 2.742 5.066 4.162 1.527 1.42 2.843 2.925 3.948 4.517 1.103 1.592 1.958 3.296 2.562 5.113.602 1.818.905 3.802.905 5.953 0 2.022-.469 3.882-1.406 5.581-.938 1.7-2.21 3.162-3.814 4.388-1.605 1.226-3.493 2.183-5.662 2.871-2.171.688-4.488 1.032-6.953 1.032-3.262 0-6.087-.484-8.475-1.45-2.388-.969-4.386-2.276-5.989-3.92-1.606-1.647-2.82-3.539-3.641-5.679-.823-2.14-1.297-4.393-1.425-6.759l14.214-2.29zM61.373 67.773c0-13.722 6.753-20.583 20.262-20.583 13.533 0 20.3 6.861 20.3 20.583v19.228c0 2.797-.341 5.437-1.021 7.921-.681 2.484-1.811 4.662-3.39 6.533-1.58 1.871-3.666 3.35-6.26 4.436-2.594 1.086-5.804 1.629-9.63 1.629-3.827 0-7.03-.527-9.61-1.581-2.581-1.053-4.661-2.494-6.24-4.323-1.58-1.828-2.711-3.968-3.39-6.42-.682-2.452-1.021-5.087-1.021-7.904V67.773zm26.54-2.936c0-5.721-2.094-8.582-6.278-8.582-1.285 0-2.331.264-3.14.791-.81.527-1.444 1.199-1.907 2.016-.462.818-.777 1.737-.944 2.758-.167 1.023-.25 2.028-.25 3.017v25.1c0 5.7 2.08 8.55 6.24 8.55 4.185 0 6.28-2.85 6.28-8.55v-25.1zM109.292 48.319h14.291c3.132 0 5.99.205 8.571.613 2.581.409 4.796 1.167 6.645 2.275 1.85 1.107 3.3 2.635 4.352 4.58 1.053 1.948 1.62 4.459 1.696 7.534 0 1.527-.212 2.882-.636 4.065-.424 1.184-1.073 2.226-1.945 3.13-.874.903-1.965 1.688-3.275 2.355-1.309.667-2.864 1.248-4.66 1.742 8.243 1.678 12.364 6.56 12.364 14.647 0 5.829-1.67 10.14-5.007 12.937-3.339 2.797-8.436 4.194-15.293 4.194h-17.103V48.319zm16.333 22.842c1.31 0 2.374-.21 3.197-.63.821-.42 1.476-.988 1.965-1.71.486-.72.821-1.574 1.001-2.564.18-.99.27-2.065.27-3.226 0-1.72-.193-3.05-.578-3.985-.385-.935-.932-1.613-1.637-2.032-.708-.42-1.548-.662-2.524-.726-.976-.065-2.055-.097-3.235-.097h-.77v14.97h2.311zM124.623 98.1c1.926 0 3.448-.2 4.565-.597 1.117-.397 1.964-1 2.542-1.807.578-.806.95-1.811 1.118-3.016.166-1.204.25-2.613.25-4.227 0-1.505-.149-2.855-.443-4.048-.296-1.194-.778-2.2-1.445-3.017-.669-.817-1.535-1.441-2.6-1.871-1.067-.43-2.369-.645-3.91-.645h-1.387V98.1h1.31zM33.214 153.259c0 1.377.051 2.716.154 4.017.102 1.3.34 2.468.713 3.5.371 1.033.91 1.87 1.617 2.517.706.645 1.662 1 2.87 1.064 2.774 0 4.161-1.484 4.161-4.452 0-4.043-2.735-8.087-8.205-12.131l-4.353-3.097c-1.233-.86-2.504-1.78-3.814-2.758s-2.504-2.108-3.582-3.388c-1.079-1.28-1.972-2.758-2.677-4.436-.707-1.677-1.059-3.645-1.059-5.904 0-2.344.474-4.462 1.425-6.356.949-1.892 2.278-3.5 3.987-4.823 1.707-1.323 3.761-2.34 6.163-3.05 2.4-.708 5.065-1.063 7.993-1.063 2.439 0 4.731.398 6.876 1.194 2.143.796 4.018 1.87 5.624 3.226 1.604 1.355 2.87 2.94 3.794 4.759.925 1.817 1.387 3.748 1.387 5.79l-.039 1.388-14.484 1.677c0-.13.006-.29.02-.483l.038-.63c.013-.225.025-.445.039-.661.012-.215.019-.408.019-.581 0-.71-.065-1.457-.192-2.242-.13-.785-.354-1.505-.675-2.162-.321-.655-.77-1.198-1.348-1.63-.577-.428-1.316-.644-2.215-.644-.77 0-1.444.14-2.022.419-.578.28-1.06.657-1.444 1.13-.386.473-.675 1.016-.867 1.629-.193.613-.289 1.253-.289 1.919 0 .968.128 1.855.385 2.662.256.807.641 1.576 1.155 2.307.513.732 1.137 1.43 1.869 2.097s1.572 1.334 2.523 2l5.123 3.678c1.849 1.355 3.537 2.742 5.066 4.162 1.527 1.419 2.843 2.926 3.948 4.517 1.103 1.592 1.958 3.296 2.562 5.113.602 1.818.905 3.802.905 5.953 0 2.022-.469 3.882-1.406 5.58-.938 1.7-2.21 3.163-3.814 4.389-1.605 1.226-3.493 2.183-5.662 2.87-2.171.689-4.488 1.033-6.953 1.033-3.262 0-6.087-.483-8.475-1.451-2.388-.968-4.386-2.275-5.989-3.92-1.606-1.646-2.82-3.538-3.641-5.678-.823-2.14-1.297-4.393-1.425-6.76l14.214-2.29zM75.47 114.092h12.405l14.946 58.072H88.99l-2.85-12.42h-9.052l-2.696 12.42H60.487l14.984-58.072zm9.747 38.424l-3.505-21.55-3.66 21.55h7.165zM109.523 114.092L119.615 114.092 134.831 144.451 134.831 114.092 146.464 114.092 146.464 172.164 136.757 172.164 121.58 139.934 121.58 172.164 109.523 172.164z"/>
        </g>
    </g>
</svg>
