<svg xmlns="http://www.w3.org/2000/svg" width="2758.826" height="365.97" viewBox="0 0 2758.826 365.97">
  <path id="Path_1" data-name="Path 1" d="M2230.2,182.6c-8.7,3.007-15.6,6.4-20.585,10.169a82.842,82.842,0,0,0-20.718,22.89c-1.859,3.007-2.809,5.683-2.809,8.054,0,2.486,1.215,3.767,3.577,3.767,3.2,0,7.807-2.429,13.812-7.352,10.673-8.632,19.628-21.1,26.723-37.528m4.222-14.58V164.7a12.394,12.394,0,0,0-2.041-7.1c-3.139-4.543-8.252-6.848-15.356-6.848q-23.495,0-54.149,36-5.477,6.133-9.2,6.138a4.642,4.642,0,0,1-3.709-2.049,4.712,4.712,0,0,1-1.157-2.808c0-4.866,6.014-13.11,17.967-24.741a138.011,138.011,0,0,1,29.986-22.312c10.615-5.766,20.462-8.641,29.607-8.641,9.392,0,16.752,3.263,22.179,9.723,3.651,4.477,5.436,10.615,5.436,18.347q0,31.647-29.788,61.955c-16.051,16.43-30.118,24.682-42.072,24.682a14.281,14.281,0,0,1-8.822-3.007,12.569,12.569,0,0,1-4.857-10.292c0-6.584,3.065-14.7,9.136-24.361Q2196.472,179.479,2234.417,168.022Zm394.37,64.532a8.557,8.557,0,0,1,6.964,3.775,9.868,9.868,0,0,1,1.858,6.138A41.157,41.157,0,0,1,2632.744,261c-3.387,6.839-7.856,10.292-13.358,10.292-5.749,0-8.632-3.263-8.632-9.714,0-6.518,1.983-13.1,6.006-19.883C2620.411,235.619,2624.376,232.554,2628.787,232.554ZM2750.582,10.062a7.31,7.31,0,0,1,6.393,3.387,11.287,11.287,0,0,1,1.851,6.328c0,5.113-3.767,14.77-11.251,28.829q-46.032,86.415-83.185,144.239c-3.957,6.4-6.451,10.615-7.475,12.73-3.263,6.137-6.65,9.2-10.1,9.2-2.5,0-4.726-1.47-6.584-4.345a13.521,13.521,0,0,1-2.429-7.674c0-3.453,1.793-8.376,5.436-14.572,1.016-1.792,5.369-8.566,13.109-20.461,9.847-16.563,19.694-32.993,29.408-49.234q4.883-8.437,29.284-53.2c5.692-10.475,10.293-18.735,13.68-24.741,3.965-7.087,7.8-14.448,11.383-22.055C2742.85,12.871,2746.36,10.062,2750.582,10.062ZM2525.975,184.791a366.8,366.8,0,0,1,42.327-38.42,188.136,188.136,0,0,1,18.348-12.6c3.263-1.924,5.311-2.874,6.2-2.874,1.851,0,3.71,1.338,5.617,4.089a7.2,7.2,0,0,1,1.669,4.089c0,2.238-2.362,5.311-7.1,9.144q-18.995,15.155-18.991,22.824c0,2.883,1.6,4.279,4.865,4.279,5.3,0,14.506-4.4,27.492-13.291,2.23-1.47,4.089-2.238,5.56-2.238a4.294,4.294,0,0,1,3.006,1.536,5.05,5.05,0,0,1,1.66,3.519c0,3.767-5.245,9.525-15.662,17.322q-16.406,12.368-31.208,12.4a20.348,20.348,0,0,1-10.987-3.2c-2.883-1.727-4.287-4.849-4.287-9.327,0-3.139,1.338-6.724,3.965-10.68q-14.87,10.458-34.975,35.991-11.6,15.737-23.081,38.817-4.324,8.624-10.681,8.624c-4.667,0-6.972-2.173-6.972-6.518,0-4.279,3.652-15.662,10.88-34.141q16.194-41.15,33.819-63.813c7.228-9.393,13.3-14.06,18.157-14.06a7.8,7.8,0,0,1,4.543,1.47,5.838,5.838,0,0,1,2.428,4.726c0,1.858-1.288,4.477-3.775,7.864-.446.578-3.775,4.8-9.912,12.539A98.776,98.776,0,0,0,2525.975,184.791Zm-.19-120.266q8.439,0,8.434,8.632,0,7.868-8.244,17.463-7.869,9.207-15.15,9.2a7.431,7.431,0,0,1-5.815-2.619,8.708,8.708,0,0,1-2.247-6.013c0-6.006,3.329-12.4,9.921-19.173C2517.533,67.019,2521.944,64.525,2525.785,64.525ZM2490.3,133.972a6.713,6.713,0,0,1,5.245,2.42,7.344,7.344,0,0,1,1.471,4.164c0,2.23-1.793,5.939-5.436,11.251-12.911,20.073-22.188,36.627-27.615,49.613a406.5,406.5,0,0,0-15.538,41.228c-1.983,6.279-5.122,9.4-9.343,9.4a7.22,7.22,0,0,1-6-3,8.047,8.047,0,0,1-2.048-5.245c0-3.775,3.957-16.232,11.953-37.462,6.261-16.753,16.3-35.3,30.308-55.495,4.469-6.658,7.864-11.061,10.095-13.308C2485.639,135.178,2487.935,133.972,2490.3,133.972Zm-79.79,18.537c-3.4-2.371-6.327-3.586-8.822-3.586q-15.824,0-29.986,19.314-18.6,25.215-18.6,48.58a12.353,12.353,0,0,0,1.148,5.312c1.471,3.139,3.775,4.676,6.774,4.676,4.419,0,9.722-4.23,16.05-12.73a231.725,231.725,0,0,0,23.4-39.825c2.5-5.245,4.924-10.49,7.352-15.736,0,0,.513-1.214,1.595-3.577Zm6.328-15.415q18.711-39.118,35.43-68.15,16.108-28.1,21.923-35.422c4.222-5.369,8.245-8.054,11.953-8.054a7.986,7.986,0,0,1,7.675,7.675c0,2.874-2.107,7.731-6.328,14.447q-27.235,43.827-49.87,89-26.565,52.451-26.6,78.7c0,7.1,1.405,12.73,4.155,16.819.447.892,2.694,2.875,6.708,6.006.769.578,1.157,1.858,1.157,3.708a9.841,9.841,0,0,1-2.941,6.84,8.706,8.706,0,0,1-6.46,3.073c-2.875,0-6.063-1.726-9.59-5.113a30.3,30.3,0,0,1-8.947-17.2c-.388-2.759-.834-7.93-1.346-15.406-13.1,23.584-25.509,35.414-37.4,35.414-6.848,0-12.276-3.9-16.431-11.632a36.032,36.032,0,0,1-4.1-17.4c0-19.429,7.162-39.065,21.42-58.758q21.3-29.256,45.714-29.21C2407.435,132.435,2412.111,133.972,2416.836,137.094Zm-114,17.521q38.932-33.369,69.695-84.333,15.911-26.38,15.918-35.033c0-2.751-1.214-4.089-3.585-4.089q-10.26,0-37.462,41.039Q2324.953,105.865,2302.839,154.615Zm-13.233,29.474q-5.65,14.571-8.443,23.592c-1.85,5.948-2.808,10.169-2.808,12.532,0,3.13,1.47,4.667,4.469,4.667,4.477,0,10.3-4.221,17.4-12.722q5.079-6.232,14.96-22.311c2.627-4.288,5.369-6.394,8.178-6.394,3.263,0,4.865,1.536,4.865,4.667q0,8.054-18.545,32.605-19.267,25.611-35.735,25.633a13.775,13.775,0,0,1-11.574-6.006,17.135,17.135,0,0,1-3.2-10.483c0-6.972,2.106-16.62,6.393-28.961q6.332-18.513,18.917-45.079,32.241-67.6,65.8-111.378,26.752-35.19,44.434-35.157a11.3,11.3,0,0,1,9.144,4.279,14.8,14.8,0,0,1,3.776,9.913q0,26.268-46.871,87.207a445.743,445.743,0,0,1-50.183,54.281Q2302.909,172.074,2289.606,184.089ZM2083.66,224.946q16.976-5.849,29.8-5.824c14.39,0,21.618,3.709,21.618,11.127a8.839,8.839,0,0,1-2.627,6.138,7.946,7.946,0,0,1-5.947,2.817,49.592,49.592,0,0,1-8.823-1.661,27.12,27.12,0,0,0-7.608-1.156,69.686,69.686,0,0,0-30.118,6.716q-10.062,4.8-13.415,4.791a11.011,11.011,0,0,1-7.493-2.809,7.734,7.734,0,0,1-3-5.823q0-7.657,18.289-30.879,27.422-34.236,58.047-58.435c-13.555,1.594-22.758,2.428-27.739,2.428-11.97,0-17.909-3.577-17.909-10.739a7.8,7.8,0,0,1,2.239-5.625,6.594,6.594,0,0,1,4.667-2.04,76.5,76.5,0,0,1,9.913,1.338,63.263,63.263,0,0,0,9.2.512,133.29,133.29,0,0,0,31.267-3.585,44.881,44.881,0,0,1,9.912-1.338,10.4,10.4,0,0,1,7.864,3.387,8.247,8.247,0,0,1,2.429,6.005c0,4.155-3.519,8.632-10.491,13.556q-30.593,24.459-43.154,37.462Q2092.837,210.3,2083.66,224.946ZM2106.674,61.08a7.886,7.886,0,0,1,6.212,2.619,8.774,8.774,0,0,1,2.23,6.013q0,7.869-8.243,17.447-7.869,9.206-15.151,9.21a7.414,7.414,0,0,1-5.815-2.627,8.963,8.963,0,0,1-2.247-6.195c0-5.882,3.329-12.209,9.913-18.991C2098.43,63.575,2102.841,61.08,2106.674,61.08Zm-39.122,0a7.884,7.884,0,0,1,6.2,2.619,8.743,8.743,0,0,1,2.238,6.013q0,7.869-8.244,17.447-7.868,9.206-15.158,9.21a8.037,8.037,0,0,1-6.014-2.627,9.544,9.544,0,0,1-2.04-6.195c0-5.882,3.321-12.209,9.9-18.991C2059.308,63.575,2063.719,61.08,2067.552,61.08ZM2032.9,196.3c-3.131-2.552-4.668-4.469-4.668-5.815,0-1.017,1.983-3.775,5.948-8.245,11.251-12.663,16.876-22.824,16.876-30.564a5.584,5.584,0,0,0-.958-3.007,4.958,4.958,0,0,0-4.667-2.817c-3.965,0-9.847,3.908-17.587,11.648q-14.955,14.955-22.816,30.878c-6.137,12.152-9.21,22.18-9.21,30.176a9.781,9.781,0,0,0,1.66,5.626,7.487,7.487,0,0,0,6.2,3.4c6.005,0,12.407-4.477,19.3-13.5a55.92,55.92,0,0,0,7.286-11.639C2032.13,198.479,2033.031,196.373,2032.9,196.3Zm19.371-70.769c10.169,0,15.282,6.262,15.282,18.735q0,24.832-22.956,63.029-25.03,41.337-48.333,41.369c-7.22,0-12.532-3.387-15.852-10.1a26.289,26.289,0,0,1-2.627-12.143q0-23.976,16.43-52.041,15.254-26,36-40.4Q2042.394,125.521,2052.27,125.529Zm-129.461,91.809c-8.566,5.939-15.414,10.417-20.594,13.357q-17.843,10.272-30.878,10.293-15.352,0-25.327-14.77a43.179,43.179,0,0,1-7.22-24.542q0-38.647,33.762-89.9a372.188,372.188,0,0,1,72.5-81.705Q1978.82,1.98,2002.979,2c8.12,0,14.769,3.453,19.891,10.293a30.3,30.3,0,0,1,5.816,18.545c0,21.676-10.615,44.244-31.911,67.514q-24.361,26.752-36.95,26.789a9.177,9.177,0,0,1-5.625-2.23,7.936,7.936,0,0,1-3.007-6.138c0-3.139,2.75-6.972,8.244-11.449q21.3-16.975,34.587-34.72c13.878-18.355,20.85-32.8,20.85-43.541a8.511,8.511,0,0,0-3.2-6.906,11.321,11.321,0,0,0-7.294-2.429c-6.65,0-15.53,3.907-26.665,11.639q-34.893,24.447-68.853,68.663a333.422,333.422,0,0,0-36.57,59.2q-12.75,26.765-12.787,43.8a21.278,21.278,0,0,0,4.287,12.721c3.891,5.369,8.955,8.062,15.15,8.062q13.32,0,32.8-14.646c16.232-11.705,27.806-21.164,34.843-28.26,5.882-6.013,10.293-9.012,13.292-9.012a6.682,6.682,0,0,1,5.245,2.429,12.325,12.325,0,0,1,2.619,7.922c0,3.461-2.106,8.062-6.386,13.82-4.353,5.749-11.135,16.62-20.213,32.6a497.979,497.979,0,0,0-29.02,58.064c-7.872,18.347-12.655,30.812-14.258,37.272-1.338,5.493-2.941,9.467-4.675,11.829-1.851,2.495-4.725,3.709-8.624,3.775-3.263-.066-5.758-1.156-7.484-3.387a11.858,11.858,0,0,1-2.231-7.17q0-15.921,18.925-55.048c2.041-4.09,8.5-16.109,19.306-35.934C1915.259,232.042,1918.522,225.772,1922.809,217.338ZM1428.13,133.972a6.7,6.7,0,0,1,5.245,2.42,7.344,7.344,0,0,1,1.471,4.164c0,2.23-1.793,5.939-5.436,11.251-12.969,20.073-22.18,36.693-27.681,49.67a422.836,422.836,0,0,0-15.472,41.246c-1.983,6.261-5.122,9.392-9.335,9.392a7.23,7.23,0,0,1-6.005-3.007,8.066,8.066,0,0,1-2.049-5.237c0-3.775,3.957-16.24,11.953-37.528q9.306-25.13,30.308-55.495c4.47-6.658,7.8-11.061,10.095-13.308C1423.471,135.178,1425.767,133.972,1428.13,133.972Zm282.282,19.553a18.185,18.185,0,0,0-4.865-6.072,9.165,9.165,0,0,0-5.626-1.974q-14.288,0-31,24.988c-12.275,18.413-18.413,33.951-18.413,46.739,0,3.139.57,5.5,1.784,7.162a6.182,6.182,0,0,0,5.37,2.437c6.013,0,12.985-6.4,21.031-19.19,4.477-6.964,10.045-17.322,16.695-30.936,4.411-8.888,7.608-14.77,9.582-17.719A30.949,30.949,0,0,1,1710.412,153.525Zm-23.468,61.764A143.91,143.91,0,0,1,1674.8,233.71q-11.8,14.561-23.4,14.572-10.173,0-15.728-9.59a28.594,28.594,0,0,1-3.585-14.58q0-20.817,13.109-45.9c9.781-18.669,21.544-32.926,35.29-42.963,8.954-6.46,17.653-9.715,26.021-9.715a18.606,18.606,0,0,1,13.167,4.858,13.153,13.153,0,0,1,4.477,9.78c0,2.743-1.082,6.584-3.2,11.449,1.924,2.619,2.816,4.924,2.816,6.964,0,2.619-1.726,6.906-5.237,12.911a144.861,144.861,0,0,0-10.813,24.427q-5.836,16.12-5.816,25.9c0,5.237,1.537,9.525,4.668,12.911.9.893,3.453,2.305,7.674,4.354,3.131,1.462,4.733,4.089,4.733,7.864a7.453,7.453,0,0,1-2.627,5.816,9.981,9.981,0,0,1-6.583,2.428c-6.774,0-12.6-3.073-17.521-9.144-4.023-4.858-6.072-11-6.072-18.347C1686.175,225.2,1686.431,221.047,1686.944,215.289Zm-92.065-85.158c9.838,0,14.762,5.179,14.762,15.6,0,9.145-3.577,18.29-10.673,27.558-5.5,6.964-10.293,10.491-14.382,10.491-3.527,0-5.245-1.991-5.245-6.014a8.086,8.086,0,0,1,1.47-5.047,52.208,52.208,0,0,1,4.469-4.287,38.89,38.89,0,0,0,6.972-9.591c1.594-2.874,2.429-5.179,2.429-6.906,0-1.982-1.149-3.007-3.387-3.007-2.619,0-6.65,2.049-12.019,6.2-8.509,6.584-17.009,17.009-25.509,31.134q-13.148,22.069-13.168,34.852a12.1,12.1,0,0,0,2.421,7.352,11.222,11.222,0,0,0,9.6,4.857q11.784,0,27.872-14.7a178.777,178.777,0,0,0,23.014-25.195c3.263-4.667,6.08-6.971,8.434-6.971a5.134,5.134,0,0,1,3.783,1.858,6.251,6.251,0,0,1,1.463,3.767q0,6.914-17.769,26.987-28.288,31.548-51.34,31.523c-9.21,0-16.24-3.329-21.106-9.913a29.073,29.073,0,0,1-5.171-17.256q0-19.479,16.108-45.145c10.359-16.364,22.387-29.54,35.934-39.518C1581.827,133.005,1588.865,130.131,1594.879,130.131Zm-114.773,64.887a16.1,16.1,0,0,1-.76-3.957c0-2.875,2.172-6.518,6.583-11,8.377-8.509,12.532-18.033,12.532-28.648a9.749,9.749,0,0,0-1.338-5.625,4.685,4.685,0,0,0-4.1-1.851q-9.59,0-29.986,26.723a134.233,134.233,0,0,0-17.074,30.309c-3.387,8.12-5.048,14.257-5.048,18.346a7.623,7.623,0,0,0,1.661,4.858,6.755,6.755,0,0,0,5.823,3.007c5.114,0,11.442-4.478,18.917-13.49a120.154,120.154,0,0,0,8.451-11.573C1478.644,197.645,1480.106,195.282,1480.106,195.018Zm-10.029,30.754c-11.829,14.522-22.188,21.742-30.878,21.742-5.757,0-10.235-2.742-13.5-8.252a24.487,24.487,0,0,1-3.2-12.912q0-17.36,12.02-40.791,16.12-30.977,39.32-49.167,13.718-10.458,25.707-10.483c6.774,0,11.507,2.5,14.258,7.476a22.573,22.573,0,0,1,3,11.259c0,1.471-.124,3.577-.38,6.2,3.643,1.338,5.435,3.189,5.435,5.427,0,1.471-1.214,4.346-3.585,8.575q-12.564,24.348-41.807,89.768-25.711,56.763-38.627,100.243c-2.106,8.756-5.493,13.109-10.218,13.109-2.627,0-4.676-1.338-6.138-3.965a11.6,11.6,0,0,1-1.66-6.005q0-11.424,21.412-64.516,10.072-25.128,18.726-44.31C1464.443,239.328,1467.839,231.53,1470.077,225.772Zm-121.728-73.263c-3.4-2.371-6.336-3.586-8.831-3.586q-15.81,0-29.986,19.314-18.6,25.215-18.6,48.58a12.345,12.345,0,0,0,1.157,5.312c1.462,3.139,3.767,4.676,6.773,4.676,4.412,0,9.715-4.23,16.042-12.73a231.27,231.27,0,0,0,23.4-39.825c2.494-5.245,4.923-10.49,7.352-15.736,0,0,.512-1.214,1.6-3.577Zm6.319-15.415q18.711-39.118,35.43-68.15,16.109-28.1,21.924-35.422c4.221-5.369,8.252-8.054,11.961-8.054a8,8,0,0,1,7.674,7.675c0,2.874-2.115,7.731-6.336,14.447q-27.236,43.827-49.869,89-26.567,52.451-26.6,78.7c0,7.1,1.4,12.73,4.155,16.819.446.892,2.693,2.875,6.716,6.006.768.578,1.148,1.858,1.148,3.708a9.84,9.84,0,0,1-2.941,6.84,8.7,8.7,0,0,1-6.46,3.073c-2.874,0-6.063-1.726-9.582-5.113a30.318,30.318,0,0,1-8.955-17.2c-.388-2.759-.834-7.93-1.338-15.406-13.109,23.584-25.509,35.414-37.4,35.414-6.84,0-12.275-3.9-16.43-11.632a36.018,36.018,0,0,1-4.089-17.4c0-19.429,7.153-39.065,21.411-58.758q21.3-29.256,45.714-29.21C1345.276,132.435,1349.943,133.972,1354.668,137.094ZM1215.1,182.172c1.586-1.47,3.189-3.006,4.659-4.477Q1258.8,139.332,1272,139.341q7.3,0,7.294,8.046c0,3.775-2.173,8.186-6.526,13.308q-35.673,41.806-35.669,73.586a37.437,37.437,0,0,0,5.625,19.693c1.727,2.875,2.619,5.113,2.619,6.782a6.044,6.044,0,0,1-2.239,4.279,7.821,7.821,0,0,1-5.815,2.618c-5.056,0-9.335-3.263-12.854-9.714-3.321-6.138-4.989-13.556-4.989-22.32q0-25.315,18.8-56-25.316,16.295-47.185,57.659c-3.767,6.658-7.8,9.979-12.019,9.979a6.973,6.973,0,0,1-5.3-2.239,9.352,9.352,0,0,1-2.627-6.773q0-10.074,23.088-53.009,12.366-23.2,19.495-33.695c4.8-6.831,8.823-10.293,12.209-10.293a6.788,6.788,0,0,1,4.734,2.247,8.437,8.437,0,0,1,2.618,6.006c0,2.75-1.792,6.715-5.427,11.829A205.692,205.692,0,0,0,1215.1,182.172Zm-55.759-28.647a18.065,18.065,0,0,0-4.858-6.072,9.16,9.16,0,0,0-5.625-1.974q-14.286,0-31.011,24.988c-12.275,18.413-18.413,33.951-18.413,46.739,0,3.139.571,5.5,1.793,7.162a6.172,6.172,0,0,0,5.369,2.437c6.014,0,12.978-6.4,21.032-19.19,4.477-6.964,10.037-17.322,16.686-30.936,4.412-8.888,7.617-14.77,9.591-17.719A30.528,30.528,0,0,1,1159.346,153.525Zm-23.461,61.764a143.893,143.893,0,0,1-12.151,18.421q-11.8,14.561-23.4,14.572-10.161,0-15.72-9.59a28.594,28.594,0,0,1-3.585-14.58q0-20.817,13.109-45.9c9.781-18.669,21.544-32.926,35.29-42.963q13.431-9.69,26.021-9.715a18.606,18.606,0,0,1,13.167,4.858,13.153,13.153,0,0,1,4.477,9.78c0,2.743-1.082,6.584-3.2,11.449,1.916,2.619,2.808,4.924,2.808,6.964,0,2.619-1.718,6.906-5.229,12.911a144.861,144.861,0,0,0-10.813,24.427c-3.9,10.747-5.816,19.371-5.816,25.9,0,5.237,1.537,9.525,4.66,12.911.908.893,3.461,2.305,7.673,4.354,3.14,1.462,4.742,4.089,4.742,7.864a7.453,7.453,0,0,1-2.627,5.816,10.012,10.012,0,0,1-6.583,2.428c-6.774,0-12.6-3.073-17.521-9.144-4.023-4.858-6.072-11-6.072-18.347C1135.117,225.2,1135.365,221.047,1135.885,215.289Zm-151.97,52.43q-19.863,10.074-40.535,28.838c-13.944,12.846-20.908,24.865-20.908,35.926a9.154,9.154,0,0,0,9.335,9.4q13.989,0,31-29.407,2.787-4.895,15.282-32.415C979.883,276.286,981.8,272.189,983.915,267.719ZM1018.5,193.8c-11.061,13.11-19.949,22.833-26.533,29.227q-19.665,18.7-32.8,18.726a12.21,12.21,0,0,1-10.1-4.659,15.27,15.27,0,0,1-2.816-9.342c0-13.49,7.988-31.325,23.906-53.645q24.372-34.038,35.174-34.009a6.846,6.846,0,0,1,5.228,2.627,6.656,6.656,0,0,1,2.049,4.857,12.212,12.212,0,0,1-2.107,7.154c-1.47,2.049-5.493,6.65-12.209,13.754A187.458,187.458,0,0,0,978.735,192.4c-6.848,9.723-10.235,16.819-10.235,21.3,0,2.619,1.281,3.891,3.776,3.891q7.57,0,28.259-20.454c8.69-8.632,15.472-15.852,20.4-21.742.959-1.206,5.37-7.153,13.11-17.768,6.964-9.4,11.309-14.96,12.911-16.687,3.767-4.411,7.228-6.592,10.492-6.592a7.341,7.341,0,0,1,5.427,2.627,7.863,7.863,0,0,1,2.239,5.626c0,3.643-2.495,9.656-7.485,18.157q-9.008,15.538-16.488,29.028-11.8,21-18.157,37.47a98.991,98.991,0,0,0,21.676-17.075c11.119-11.251,17.893-19.561,20.387-25.063,2.371-4.989,4.734-7.542,7.229-7.542,3.452,0,5.179,1.784,5.179,5.3q0,9.887-16.753,29.54a180.253,180.253,0,0,1-49.423,40.345q-15.724,37.878-29.862,62.78-26.27,45.946-54.281,45.9a22.366,22.366,0,0,1-18.413-8.822c-3.643-4.469-5.427-10.16-5.427-17.066q0-29.256,41.039-59.783,11.994-9.008,35.62-22.51c6.385-3.643,11.383-6.517,15.017-8.814,2.181-5.757,5.626-13.365,10.169-22.89C1010.258,211.324,1014.661,202.056,1018.5,193.8Zm-103.448,2.5c-3.139-2.552-4.675-4.469-4.675-5.815,0-1.017,1.982-3.775,5.956-8.245,11.242-12.663,16.876-22.824,16.876-30.564a5.584,5.584,0,0,0-.958-3.007,4.971,4.971,0,0,0-4.676-2.817c-3.965,0-9.838,3.908-17.578,11.648q-14.957,14.955-22.824,30.878c-6.138,12.152-9.211,22.18-9.211,30.176a9.841,9.841,0,0,0,1.66,5.626,7.5,7.5,0,0,0,6.2,3.4c6.014,0,12.407-4.477,19.3-13.5a55.969,55.969,0,0,0,7.294-11.639C914.286,198.479,915.178,196.373,915.054,196.3Zm19.371-70.769c10.169,0,15.283,6.262,15.283,18.735q0,24.832-22.957,63.029Q901.71,248.63,878.41,248.662c-7.22,0-12.523-3.387-15.844-10.1a26.289,26.289,0,0,1-2.627-12.143q0-23.976,16.431-52.041,15.254-26,35.991-40.4Q924.554,125.521,934.425,125.529ZM715.957,236.775a61.512,61.512,0,0,0,9.4,4.857c5.37,2.107,12.466,3.2,21.354,3.2q39.887,0,63.929-31.522c13.63-17.843,20.4-35.29,20.4-52.488q0-17.559-15.539-27.814a38.831,38.831,0,0,0-21.543-5.939,70.733,70.733,0,0,0-13.878,2.04,15.735,15.735,0,0,1-3.387.388c-3.007,0-5.5-2.18-7.484-6.583q-15.055,22.824-33.753,63.673C729.066,200.528,722.607,217.28,715.957,236.775Zm64.837-133.88a178,178,0,0,0,59.906-22.7c21.668-13.176,32.539-26.211,32.539-39.255,0-6.013-2.875-10.681-8.632-14.076-3.709-2.23-8.955-3.378-15.663-3.378a74.9,74.9,0,0,0-14.067,1.4,127,127,0,0,0-15.853,4.221,7.45,7.45,0,0,1,3.2,6.014c0,3.263-2.114,7.6-6.212,13.168-1.4,1.85-3.89,5.559-7.476,11.06-1.4,2.363-5.559,8.7-12.589,18.926A272.173,272.173,0,0,0,780.794,102.895ZM808.922,114.2q17.645,6.343,26.657,15.927,15.438,16.107,15.414,37.4,0,25.712-15.538,48.722a107.735,107.735,0,0,1-37.281,33.505q-22.91,12.378-47.052,12.341-18.7,0-40.469-9.525a67.991,67.991,0,0,0-2.048,6.708c-1.661,5.882-4.222,8.823-7.732,8.823-3.585,0-6.724-2.049-9.343-6.2a16.165,16.165,0,0,1-2.809-8.814c0-4.354,2.751-13.5,8.244-27.5q16.89-43.059,29.54-67.58,7.869-15.154,32.613-57.668,10.83-18.313,31.259-49.993c3.263-4.989,6.327-10.045,9.334-15.158a198.955,198.955,0,0,0-23.394,9.789c-8,3.709-12.663,5.559-14.076,5.559a5.9,5.9,0,0,1-4.849-2.817,10.821,10.821,0,0,1-2.049-6.526c0-3.89,1.338-6.641,3.957-8.434,4.742-3.321,13.242-7.55,25.451-12.531Q823.113,4.685,846.706,4.685c13.242,0,23.98,3.329,32.224,9.912,8.245,6.65,12.342,14.894,12.342,24.931q0,30.891-35.744,53.322A200.251,200.251,0,0,1,808.922,114.2ZM574.146,153.525a18.051,18.051,0,0,0-4.857-6.072,9.182,9.182,0,0,0-5.634-1.974q-14.286,0-31,24.988c-12.275,18.413-18.413,33.951-18.413,46.739,0,3.139.57,5.5,1.785,7.162a6.191,6.191,0,0,0,5.369,2.437c6.014,0,12.986-6.4,21.04-19.19,4.469-6.964,10.037-17.322,16.686-30.936,4.411-8.888,7.608-14.77,9.591-17.719A30.552,30.552,0,0,1,574.146,153.525Zm-23.46,61.764a144.74,144.74,0,0,1-12.151,18.421q-11.8,14.561-23.4,14.572-10.173,0-15.729-9.59a28.683,28.683,0,0,1-3.577-14.58q0-20.817,13.1-45.9c9.789-18.669,21.543-32.926,35.3-42.963q13.431-9.69,26.02-9.715a18.621,18.621,0,0,1,13.168,4.858,13.182,13.182,0,0,1,4.477,9.78c0,2.743-1.082,6.584-3.2,11.449,1.917,2.619,2.809,4.924,2.809,6.964,0,2.619-1.727,6.906-5.237,12.911a144.914,144.914,0,0,0-10.805,24.427c-3.9,10.747-5.816,19.371-5.816,25.9,0,5.237,1.537,9.525,4.659,12.911.9.893,3.461,2.305,7.674,4.354,3.139,1.462,4.734,4.089,4.734,7.864a7.456,7.456,0,0,1-2.627,5.816,9.982,9.982,0,0,1-6.584,2.428c-6.774,0-12.6-3.073-17.521-9.144-4.014-4.858-6.063-11-6.063-18.347C549.918,225.2,550.166,221.047,550.686,215.289Zm-151.97,52.43q-19.863,10.074-40.544,28.838c-13.935,12.846-20.907,24.865-20.907,35.926a9.167,9.167,0,0,0,9.342,9.4q13.99,0,31-29.407,2.787-4.895,15.282-32.415C394.684,276.286,396.592,272.189,398.716,267.719ZM433.3,193.8c-11.061,13.11-19.958,22.833-26.542,29.227q-19.651,18.7-32.794,18.726a12.236,12.236,0,0,1-10.1-4.659,15.26,15.26,0,0,1-2.809-9.342c0-13.49,7.988-31.325,23.907-53.645q24.36-34.038,35.165-34.009a6.862,6.862,0,0,1,5.237,2.627,6.687,6.687,0,0,1,2.049,4.857,12.277,12.277,0,0,1-2.106,7.154c-1.471,2.049-5.5,6.65-12.21,13.754A187.433,187.433,0,0,0,393.528,192.4c-6.84,9.723-10.227,16.819-10.227,21.3,0,2.619,1.281,3.891,3.767,3.891,5.056,0,14.448-6.832,28.268-20.454,8.69-8.632,15.472-15.852,20.395-21.742.959-1.206,5.37-7.153,13.11-17.768,6.964-9.4,11.309-14.96,12.911-16.687,3.767-4.411,7.22-6.592,10.483-6.592a7.374,7.374,0,0,1,5.436,2.627,7.854,7.854,0,0,1,2.23,5.626c0,3.643-2.487,9.656-7.476,18.157q-9.007,15.538-16.5,29.028-11.784,21-18.149,37.47a98.761,98.761,0,0,0,21.668-17.075c11.127-11.251,17.9-19.561,20.395-25.063,2.363-4.989,4.733-7.542,7.228-7.542,3.445,0,5.18,1.784,5.18,5.3q0,9.887-16.753,29.54a180.387,180.387,0,0,1-49.423,40.345q-15.725,37.878-29.862,62.78-26.27,45.946-54.281,45.9a22.365,22.365,0,0,1-18.413-8.822c-3.643-4.469-5.436-10.16-5.436-17.066q0-29.256,41.048-59.783,11.994-9.008,35.611-22.51c6.394-3.643,11.383-6.517,15.026-8.814,2.181-5.757,5.626-13.365,10.169-22.89C425.05,211.324,429.462,202.056,433.3,193.8ZM302.488,182.172c1.586-1.47,3.188-3.006,4.658-4.477q39.033-38.363,52.241-38.354,7.285,0,7.285,8.046c0,3.775-2.172,8.186-6.517,13.308q-35.686,41.806-35.678,73.586a37.512,37.512,0,0,0,5.626,19.693c1.726,2.875,2.618,5.113,2.618,6.782a6.064,6.064,0,0,1-2.23,4.279,7.853,7.853,0,0,1-5.824,2.618c-5.055,0-9.334-3.263-12.853-9.714-3.321-6.138-4.982-13.556-4.982-22.32q0-25.315,18.793-56-25.314,16.295-47.184,57.659c-3.767,6.658-7.8,9.979-12.019,9.979a6.987,6.987,0,0,1-5.3-2.239,9.356,9.356,0,0,1-2.627-6.773q0-10.074,23.089-53.009,12.366-23.2,19.5-33.695c4.8-6.831,8.831-10.293,12.217-10.293a6.784,6.784,0,0,1,4.725,2.247,8.443,8.443,0,0,1,2.627,6.006c0,2.75-1.8,6.715-5.435,11.829A206.974,206.974,0,0,0,302.488,182.172ZM299.613,61.08a7.874,7.874,0,0,1,6.2,2.619,8.739,8.739,0,0,1,2.239,6.013q0,7.869-8.253,17.447-7.867,9.206-15.149,9.21a7.413,7.413,0,0,1-5.816-2.627,8.963,8.963,0,0,1-2.247-6.195c0-5.882,3.338-12.209,9.921-18.991C291.352,63.575,295.772,61.08,299.613,61.08Zm-39.139,0a7.859,7.859,0,0,1,6.2,2.619,8.743,8.743,0,0,1,2.238,6.013q0,7.869-8.244,17.447-7.867,9.206-15.158,9.21a8,8,0,0,1-6.005-2.627,9.5,9.5,0,0,1-2.049-6.195c0-5.882,3.321-12.209,9.9-18.991C252.23,63.575,256.641,61.08,260.474,61.08ZM220.005,217.528a191.521,191.521,0,0,1-14.258,17.967c-7.228,7.988-14.382,12.019-21.486,12.019q-9.206,0-14.191-8.252a25.805,25.805,0,0,1-3.577-13.8q0-24.174,20.585-55.363c6.394-9.722,12.656-17.207,18.925-22.262,4.858-4.155,8.889-6.2,12.02-6.2a7.007,7.007,0,0,1,4.923,2.239,6.373,6.373,0,0,1,1.85,4.155c0,2.371-2.3,6.2-6.906,11.573-10.35,12.342-18.281,23.717-23.65,34.076-6.2,12.085-9.334,21.609-9.334,28.449a5.925,5.925,0,0,0,1.214,4.031,4.319,4.319,0,0,0,3.453,1.413c6.394,0,15.216-9.153,26.591-27.368a173.487,173.487,0,0,0,15.158-31.522,63.26,63.26,0,0,1,8.823-16.621c3.453-4.411,6.9-6.583,10.234-6.583a6.678,6.678,0,0,1,4.982,2.42,8.489,8.489,0,0,1,2.436,5.824q0,6.715-12.919,30.308c-5.882,10.863-8.823,19.875-8.823,27.169,0,7.741,2.049,14.324,6.138,19.818,1.148,1.536,4.6,3.907,10.359,7.162,2.751,1.668,4.089,4.287,4.089,7.93a7.542,7.542,0,0,1-2.875,5.881,10.825,10.825,0,0,1-7.029,2.429c-6.279,0-11.9-2.561-17.017-7.674-4.6-4.477-7.542-10.995-8.814-19.438C220.641,226.16,220.385,222.9,220.005,217.528ZM107.165,38.834c3.709,1.85,5.617,3.891,5.617,6.138,0,1.66-2.362,6.773-7.153,15.4A1206.405,1206.405,0,0,0,46.491,180.7q-21.969,51.683-21.94,63.549,0,7.483,7.095,7.484,12,0,32.225-12.919Q89.2,222.894,119.5,185.369a291.178,291.178,0,0,0,43.484-71.8c8.244-19.5,12.333-36.76,12.333-51.918,0-10.739-2.627-18.727-7.872-24.03-5.229-5.312-13.093-8-23.584-8Q127.937,29.623,107.165,38.834ZM89.446,47.59a64.78,64.78,0,0,0-9.591,6.394c-5.369,4.469-9.334,6.708-11.953,6.708a7.548,7.548,0,0,1-5.427-2.429,8.223,8.223,0,0,1-2.627-5.815q0-6.9,18.223-20.66,27.9-20.991,61.509-20.966,26.082,0,41.418,17.075,13.915,15.341,13.878,37.082,0,35.958-26.6,84.523-31.162,56.775-80.938,94.055-36.924,27.707-65.6,27.739-11.226,0-17.067-6.707A18.523,18.523,0,0,1,0,252.569c0-6.393,4.089-20.717,12.341-43.1A1019.556,1019.556,0,0,1,58.692,104.746Q62.817,96.5,89.446,47.59Z" transform="translate(0 -2)" fill="#ed3237"/>
</svg>
