<svg xmlns="http://www.w3.org/2000/svg" width="19" height="19" viewBox="0 0 22.506 22.497">
  <g id="icons-cart" transform="translate(0.75 0.75)">
    <g id="Group_9" data-name="Group 9" transform="translate(0 0)">
      <g id="Group_8" data-name="Group 8">
        <path id="Path_8" data-name="Path 8" d="M21.5,18.125H11.579A1.5,1.5,0,0,1,10.1,16.876L7.463,1.376A1.5,1.5,0,0,0,5.984.128H5M19.625,20.375A.375.375,0,1,0,20,20.75a.375.375,0,0,0-.375-.375m-7.5,0a.375.375,0,1,0,.375.375.375.375,0,0,0-.375-.375" transform="translate(-5 -0.128)" fill="none" stroke="#d8232a" stroke-linecap="round" stroke-linejoin="round" stroke-width="1.5" fill-rule="evenodd"/>
        <path id="Path_9" data-name="Path 9" d="M2.031,13.625H14.1a3,3,0,0,0,2.91-2.272l1.45-5.8a.75.75,0,0,0-.728-.932H.5" transform="translate(2.516 -0.128)" fill="none" stroke="#d8232a" stroke-linecap="round" stroke-linejoin="round" stroke-width="1.5" fill-rule="evenodd"/>
      </g>
    </g>
  </g>
</svg>
