<svg xmlns="http://www.w3.org/2000/svg" width="19" height="19" viewBox="0 0 24 24">
    <g fill="none" fill-rule="evenodd">
        <g fill="#d8232a" fill-rule="nonzero">
            <g>
                <path d="M11.25 3c.38 0 .694.282.743.648L12 3.75v18c0 .414-.336.75-.75.75-.38 0-.693-.282-.743-.648l-.007-.102v-18c0-.414.336-.75.75-.75z" transform="translate(1)"/>
                <path d="M15.75 21c.414 0 .75.336.75.75 0 .38-.282.693-.648.743l-.102.007h-9c-.414 0-.75-.336-.75-.75 0-.38.282-.693.648-.743L6.75 21h9zM18 1.5c.414 0 .75.336.75.75 0 .38-.282.693-.648.743L18 3h-5.25c-.414 0-.75-.336-.75-.75 0-.38.282-.693.648-.743l.102-.007H18zM9.75 1.5c.414 0 .75.336.75.75 0 .38-.282.693-.648.743L9.75 3H4.5c-.414 0-.75-.336-.75-.75 0-.38.282-.693.648-.743L4.5 1.5h5.25z" transform="translate(1)"/>
                <path d="M11.25 0C10.008 0 9 1.007 9 2.25s1.008 2.25 2.25 2.25c1.243 0 2.25-1.007 2.25-2.25S12.493 0 11.25 0zm0 1.5c.414 0 .75.336.75.75s-.336.75-.75.75-.75-.336-.75-.75.336-.75.75-.75zM8.25 12H.75c-.414 0-.75.336-.75.75 0 2.485 2.015 4.5 4.5 4.5S9 15.235 9 12.75c0-.414-.336-.75-.75-.75zm-.847 1.5l-.025.102C7.01 14.844 5.86 15.75 4.5 15.75l-.176-.005c-1.283-.074-2.35-.955-2.701-2.143l-.027-.102h5.807zM3.83 1.915c.185-.37.635-.521 1.006-.336.34.17.494.563.374.912l-.039.094-3.75 7.5c-.185.37-.636.521-1.006.336-.34-.17-.494-.563-.375-.912l.04-.094 3.75-7.5z" transform="translate(1)"/>
                <path d="M4.165 1.58c.34-.17.746-.059.954.247l.052.088 3.75 7.5c.185.37.035.82-.335 1.006-.34.17-.747.058-.955-.248l-.052-.088-3.75-7.5c-.185-.37-.035-.82.336-1.006zM21.75 12h-7.5c-.414 0-.75.336-.75.75 0 2.485 2.015 4.5 4.5 4.5s4.5-2.015 4.5-4.5c0-.414-.336-.75-.75-.75zm-.847 1.5l-.025.102C20.51 14.844 19.36 15.75 18 15.75l-.176-.005c-1.283-.074-2.35-.955-2.701-2.143l-.027-.102h5.807zM17.33 1.915c.185-.37.635-.521 1.006-.336.34.17.494.563.374.912l-.039.094-3.75 7.5c-.185.37-.636.521-1.006.336-.34-.17-.494-.563-.375-.912l.04-.094 3.75-7.5z" transform="translate(1)"/>
                <path d="M17.665 1.58c.34-.17.746-.059.954.247l.052.088 3.75 7.5c.185.37.035.82-.335 1.006-.34.17-.747.058-.955-.248l-.052-.088-3.75-7.5c-.185-.37-.035-.82.336-1.006z" transform="translate(1)"/>
            </g>
        </g>
    </g>
</svg>
