<svg xmlns="http://www.w3.org/2000/svg" width="18" height="18" viewBox="0 0 24 24">
    <g fill="none" fill-rule="evenodd" stroke-linecap="round" stroke-linejoin="round">
        <g stroke="#d8232a" stroke-width="1.5">
            <g>
                <path d="M15.75 22.5H5.25c-.828 0-1.5-.671-1.5-1.5V7.5h13.5V21c0 .829-.672 1.5-1.5 1.5zM8.25 18L8.25 12M12.75 18L12.75 12M0 5.462L19.074 1.408M11.114.033l-4.4.935c-.39.082-.731.317-.948.65-.217.335-.293.742-.209 1.132l.316 1.465 7.336-1.56-.316-1.467c-.172-.81-.969-1.327-1.779-1.155z" transform="translate(2 1)"/>
            </g>
        </g>
    </g>
</svg>
