<svg xmlns="http://www.w3.org/2000/svg" width="19" height="19" viewBox="0 0 24 24">
    <g fill="none" fill-rule="evenodd">
        <g fill="#d8232a" fill-rule="nonzero">
            <g>
                <path d="M12 2.324l1.036-1.035c1.46-1.46 3.532-2.13 5.57-1.798 2.038.33 3.792 1.62 4.716 3.467 1.236 2.472.752 5.458-1.192 7.402l-9.589 10.003c-.295.308-.787.308-1.082 0l-9.577-9.988C-.075 8.419-.56 5.43.678 2.958 1.602 1.11 3.356-.18 5.394-.51c2.038-.331 4.11.338 5.57 1.798L12 2.324zm9.059 6.987c1.498-1.499 1.869-3.787.921-5.683-.708-1.415-2.052-2.403-3.614-2.657-1.562-.253-3.15.26-4.27 1.378L12.53 3.914c-.293.293-.767.293-1.06 0L9.904 2.35C8.784 1.231 7.196.718 5.634.971 4.072 1.225 2.728 2.213 2.02 3.63c-.95 1.896-.578 4.186.933 5.696L12 18.76l9.059-9.45z" transform="translate(0 2)"/>
            </g>
        </g>
    </g>
</svg>
