<svg xmlns="http://www.w3.org/2000/svg" width="13" height="13" viewBox="0 0 16 16">
    <g fill="none" fill-rule="evenodd">
        <g fill="#d8232a">
            <path d="M8.002 3.898C5.732 3.898 3.9 5.729 3.9 8c0 2.27 1.83 4.102 4.1 4.102 2.27 0 4.102-1.831 4.102-4.102 0-2.27-1.831-4.102-4.101-4.102zm0 6.769c-1.467 0-2.667-1.196-2.667-2.667 0-1.47 1.196-2.667 2.667-2.667 1.47 0 2.666 1.196 2.666 2.667 0 1.47-1.2 2.667-2.666 2.667zm5.225-6.937c0 .532-.428.957-.956.957-.532 0-.957-.429-.957-.957s.429-.957.957-.957.956.429.956.957zm2.717.971c-.06-1.282-.354-2.417-1.292-3.352C13.716.413 12.582.12 11.3.056c-1.32-.075-5.28-.075-6.6 0-1.278.06-2.413.354-3.352 1.29C.41 2.28.12 3.415.056 4.697c-.075 1.32-.075 5.28 0 6.6.06 1.283.354 2.418 1.292 3.353.94.936 2.07 1.229 3.352 1.293 1.32.075 5.28.075 6.6 0 1.281-.06 2.416-.354 3.352-1.293.935-.935 1.228-2.07 1.292-3.352.075-1.321.075-5.277 0-6.598zm-1.706 8.015c-.279.7-.818 1.24-1.521 1.521-1.053.418-3.552.322-4.715.322-1.164 0-3.666.092-4.715-.322-.7-.278-1.239-.817-1.521-1.52-.418-1.054-.321-3.553-.321-4.717 0-1.164-.093-3.667.321-4.716.278-.7.817-1.24 1.52-1.521 1.054-.418 3.552-.322 4.716-.322 1.163 0 3.666-.092 4.715.322.7.278 1.239.817 1.52 1.52.418 1.054.322 3.553.322 4.717 0 1.164.096 3.667-.321 4.716z"/>
        </g>
    </g>
</svg>
