<svg xmlns="http://www.w3.org/2000/svg" width="13" height="13" viewBox="0 0 16 16">
    <g fill="none" fill-rule="evenodd">
        <g fill="#d8232a">
            <path d="M15.666 4.721c-.184-.677-.727-1.21-1.415-1.392C13.003 3 8 3 8 3s-5.003 0-6.251.329C1.06 3.51.519 4.044.334 4.721 0 5.95 0 8.511 0 8.511s0 2.562.334 3.79c.184.678.727 1.189 1.415 1.37C2.997 14 8 14 8 14s5.003 0 6.251-.329c.688-.181 1.23-.692 1.415-1.37.334-1.228.334-3.79.334-3.79s0-2.562-.334-3.79zM6 11V6l4 2.5L6 11z"/>
        </g>
    </g>
</svg>
